# xmcd
#
# Track frame offsets:
#	150
#	14327
#	28879
#	43724
#	62094
#	83126
#	103123
#	122235
#	138775
#	153627
#
# Disc length: 2202 seconds
# Revision: 0
# Processed by: cddbd v1.5.2PL0 Copyright (c) Steve Scherf et al.
# Submitted via: dBpowerAMP V12.0
#
DISCID=8408980a
DTITLE=Johnny Cash - Strawberry Cake
DYEAR=1976
DGENRE=Country
TTITLE0=Big River
TTITLE1=Doin' My Time
TTITLE2=I Still Miss Someone
TTITLE3=I Got Stripes
TTITLE4=Church In The Wildwood-Lonesome Valley
TTITLE5=Strawberry Cake
TTITLE6=Rock Island Line
TTITLE7=Navajo
TTITLE8=Destination Victoria Station
TTITLE9=The Fourth Man
EXTD=
EXTT0=
EXTT1=
EXTT2=
EXTT3=
EXTT4=
EXTT5=
EXTT6=
EXTT7=
EXTT8=
EXTT9=
PLAYORDER=
